# xmcd
#
# Track frame offsets:
#	150
#	18912
#	33142
#	53262
#	66800
#	79222
#	93977
#	105802
#	120957
#	136142
#	153715
#	172732
#
# Disc length: 2507 seconds
#
# Revision: 1
# Processed by: cddbd v1.5.1PL0 Copyright (c) Steve Scherf et al.
# Submitted via: audiograbber 1.83.01
#
DISCID=7a09c90c
DTITLE=Δανάη - Τα πιό όμορφα τραγούδια του Αττίκ
DYEAR=1900
DGENRE=
TTITLE0=Οργανάκι
TTITLE1=Ζητάτε να σας πώ
TTITLE2=Έρημος βαρύς και μόνος
TTITLE3=Μαραμένα τα πουλιά και οι βιόλες
TTITLE4=Το δάκρυ το πικρότερο
TTITLE5=Άδικαν πήγαν τα νειάτα μου
TTITLE6=Παπαρούνα
TTITLE7=Αν βγούν αλήθεια
TTITLE8=Να ζει κανείς η να μην ζει
TTITLE9=Το στιμμένο σταφύλι
TTITLE10=Της μιάς δραχμής τα γιασεμιά
TTITLE11=Είδα μάτια
EXTD=
EXTT0=
EXTT1=
EXTT2=
EXTT3=
EXTT4=
EXTT5=
EXTT6=
EXTT7=
EXTT8=
EXTT9=
EXTT10=
EXTT11=
PLAYORDER=
